<svg xmlns="http://www.w3.org/2000/svg" xmlns:xlink="http://www.w3.org/1999/xlink" xml:space="preserve" version="1.1" style="shape-rendering:geometricPrecision;text-rendering:geometricPrecision;image-rendering:optimizeQuality;" viewBox="0 0 50000 62500" x="0px" y="0px" fill-rule="evenodd" clip-rule="evenodd"><defs><style type="text/css">
   
    .fil0 {fill:black;fill-rule:nonzero}
   
  </style></defs><g><path class="fil0" d="M7467.81 15706.07c2.77,-50.43 29.85,-98.59 76.59,-126.2l479.02 -284.47c-126.63,-124.67 -289.65,-190.36 -453.21,-195.79 -169.46,-5.63 -339.71,53.34 -470.54,178.23 -130.62,124.69 -197.33,291.72 -199.55,460.89 -2.23,170.58 60.84,343.65 189.77,478.7 128.64,134.77 298.28,205.66 468.52,211.31 169.45,5.64 339.7,-53.34 470.53,-178.23 130.63,-124.69 197.33,-291.71 199.55,-460.88 0.87,-65.97 -8.04,-132.31 -26.74,-196.67l-505.21 281.29c-75.35,41.89 -170.42,14.79 -212.31,-60.57 -18.96,-34.08 -23.78,-72.2 -16.42,-107.61zm2301.29 20262.76c-43.59,-74.34 -18.66,-169.96 55.67,-213.54 74.34,-43.59 169.96,-18.66 213.55,55.68 21.71,36.92 51.62,74.5 88.01,110.25 35.39,34.74 77.05,67.25 123.43,95.21 74,44.6 97.83,140.76 53.24,214.75 -44.6,74 -140.76,97.84 -214.76,53.24 -66.37,-40.01 -127.52,-88.03 -180.94,-140.49 -55.31,-54.33 -102.29,-114.03 -138.2,-175.1zm-13.3 -473.93c2.21,38.58 -9.79,78.04 -36.72,109.86 -51.18,60.53 -133.08,136.47 -230.48,226.77 -337.83,313.21 -894.09,828.95 -621.65,1137.78 134.23,152.15 341.14,144.72 590.51,40.28 295.26,-123.67 641.44,-376.53 1002.48,-675.46 21.89,-18.1 47.24,-29.25 73.38,-33.68 23.24,-7.29 48.52,-9.27 74.16,-4.67 212.17,38.67 428.56,0.52 623.2,-71.16 87.41,-32.18 169.96,-70.83 245.67,-112.26l274.65 -203.64 2332.78 -1963.93c-92.76,11.72 -189.42,17.52 -289.67,16.18 -859.75,-11.47 -1744.66,-559.44 -2225.62,-1262.44 -534.43,402.16 -958.3,826.76 -1294.81,1243.26 -160.97,199.25 -301.9,396.62 -425.37,588.78 -57.95,106.45 -97.61,207.37 -121.47,306.11 -48.05,198.75 -32.99,395.85 24.1,618.28 3.4,13.37 4.98,26.77 4.86,39.94zm858.25 1117.67c-365.38,299.57 -719.85,553.11 -1036.67,685.81 -375.8,157.38 -702.51,151.62 -944.15,-122.27 -474.49,-537.87 220.42,-1182.13 642.45,-1573.41 60.24,-55.85 114.05,-105.74 154.78,-146.5 -12.67,-56.72 -22.84,-112.41 -30.28,-167.39l-7423.6 5145.52 0.1 0.16c-377.98,266.28 -481.42,631.37 -403.18,964.41 34.95,148.82 105.08,291.99 202.49,418.34 98.38,127.58 224.56,238.03 370.59,320.06 382.87,215.04 904.41,229.94 1421.84,-161.61l1.22 -0.61 7217.39 -5351.6c-57.25,0.15 -115.01,-3.32 -172.98,-10.91zm13106.24 -19357.6c-7.21,56.99 -59.26,97.35 -116.26,90.15 -56.99,-7.21 -97.35,-59.26 -90.14,-116.25 148.9,-1178.46 531.98,-1715.32 982.48,-2346.63 282.95,-396.53 593.33,-831.47 886.32,-1495.05 23.19,-52.72 84.75,-76.64 137.46,-53.45 52.71,23.2 76.63,84.75 53.44,137.46 -301.06,681.89 -618.31,1126.47 -907.53,1531.77 -434.24,608.53 -803.5,1126.02 -945.77,2252zm-6538.13 12997.68c-2.9,1.95 -5.84,3.79 -8.82,5.53 -374.79,497.15 -757.99,949.85 -1119.52,1254.27 42.93,186.95 36.48,417.43 -20.55,664.21 -12.47,54.01 -27.38,108.93 -44.71,164.52l2310.16 -1944.9c-1.44,-635.28 392.4,-1065.48 816.6,-1447.2l-1933.16 1303.57zm521.24 -728.91l2304.99 -1554.31c15.81,-45.83 26.7,-92.5 31.89,-140.21 3.25,-135.29 36.42,-276.47 105.35,-422.09 157.77,-333.33 268.79,-595.2 345.92,-806.26 -127.67,61.32 -250.12,121.62 -368.28,184.18 -3.08,1.77 -6.25,3.46 -9.48,5.04 -355.07,188.72 -671.52,398.75 -974.99,719.75 -221.29,234.06 -555.56,725.84 -941.96,1294.33 -157.2,231.27 -322.76,474.84 -493.44,719.57zm5201.82 -1987.91c-22.29,52.93 -83.31,77.77 -136.24,55.48 -52.93,-22.3 -77.77,-83.31 -55.48,-136.24 110.76,-262.03 228.19,-391.09 341.43,-515.55 144.18,-158.47 280.81,-308.65 377.72,-777.24 11.48,-56.31 66.46,-92.66 122.77,-81.18 56.32,11.49 92.67,66.47 81.18,122.78 -108.68,525.56 -263.8,696.07 -427.48,875.96 -101.92,112.01 -207.6,228.16 -303.9,455.99zm-6264.14 -8084.61c-5.74,86.16 -80.26,151.36 -166.41,145.61 -86.16,-5.74 -151.36,-80.25 -145.62,-166.41 48.63,-695.66 138.16,-1201.69 266.76,-1642.69 128.88,-441.97 294.61,-811.95 496.92,-1239.36 36.83,-78.06 129.97,-111.47 208.03,-74.64 78.06,36.83 111.47,129.97 74.64,208.03 -196.99,416.16 -357.94,774.94 -479.8,1192.85 -122.14,418.89 -207.51,903.99 -254.52,1576.61zm88.07 3170.54c-12.83,85.49 -92.56,144.37 -178.05,131.54 -85.49,-12.84 -144.37,-92.56 -131.54,-178.05 382.97,-2507.28 837.58,-3206.73 1332.55,-3968.31 320.21,-492.68 658.03,-1012.42 1005.62,-2113.18 26.01,-82.45 113.96,-128.18 196.41,-102.17 82.45,26.01 128.19,113.95 102.17,196.41 -359.49,1138.45 -710.03,1677.79 -1042.33,2189.05 -475.32,731.33 -911.87,1403 -1284.83,3844.71zm-3517.57 1661.86c-16.22,84.81 -98.14,140.42 -182.95,124.2 -84.81,-16.21 -140.41,-98.13 -124.2,-182.95 149.68,-771.05 203.53,-1509.21 166.27,-2163.64 -37.03,-650.46 -163.71,-1215.98 -375.32,-1645.41 -38.18,-77.38 -6.4,-171.08 70.98,-209.25 77.37,-38.18 171.07,-6.41 209.25,70.97 230.33,467.43 367.72,1074.45 407.13,1766.56 38.71,679.81 -16.72,1443.94 -171.16,2239.52zm-838.58 722.65c-1.68,86.15 -72.92,154.63 -159.08,152.95 -86.16,-1.68 -154.64,-72.92 -152.96,-159.07 23.56,-1017.48 -238.5,-2181.37 -782.44,-3225.71 -478.61,-918.89 -1174.73,-1742.8 -2085.23,-2288.58 -73.99,-44.27 -98.1,-140.16 -53.84,-214.15 44.27,-74 140.16,-98.11 214.15,-53.84 964.63,578.22 1699.59,1446.23 2202.7,2412.18 567.9,1090.32 841.41,2308.7 816.7,3376.22zm-759.88 974.34c17.23,84.46 -37.29,166.93 -121.76,184.16 -84.47,17.23 -166.93,-37.29 -184.16,-121.76 -212.34,-1026.56 -643.76,-1898.74 -1186.2,-2567.32 -586.04,-722.32 -1299.97,-1205.03 -2003.78,-1384.94 -83.8,-21.28 -134.47,-106.48 -113.19,-190.28 21.28,-83.8 106.48,-134.47 190.28,-113.19 766.85,196.02 1539.84,715.92 2168.99,1491.38 572.04,705.08 1026.67,1623.16 1249.82,2701.95zm13080.71 5356.43c-80.41,31.42 -171.09,-8.3 -202.51,-88.71 -31.42,-80.42 8.3,-171.1 88.72,-202.52 473.95,-186.78 961.16,-287.33 1337.97,-305.33 196.55,-9.4 366.27,3.41 493.04,37.87 170.21,46.26 280.74,134.94 309.7,266.75 7.87,35.85 8.7,73.46 2.02,112.74 -86.24,506.48 -1790.51,1370.48 -3182.88,2076.34 -911.89,462.28 -1677.74,850.55 -1676.32,856.14 1.39,5.47 519.51,-123.09 1890.37,-472.14 619.56,-157.75 1089.11,-245.99 1417.09,-254.56 402.01,-10.5 622.8,100 671.69,347.03l6.2 31.37 -7.42 32.87c-145.92,645.46 -2543.2,1583.57 -4658.14,2411.2 -1454.77,569.3 -2770.71,1084.29 -3034.48,1333.89 50.28,10.38 155.48,15.51 304.22,16.11 277.6,1.13 667.77,-43.01 1128.72,-121.4 1041.97,-177.23 2431.77,-529.24 3698.44,-930.26 82.45,-26.01 170.4,19.72 196.41,102.17 26.01,82.46 -19.73,170.4 -102.18,196.41 -1277.23,404.37 -2682.99,760.06 -3741.27,940.06 -475.1,80.8 -882.92,126.28 -1181.35,125.06 -366.47,-1.5 -597.49,-86.04 -641.06,-273.83 -3.68,-15.91 -5.86,-33.1 -6.45,-51.58l-1.09 -33.82 12.09 -29.82c140.14,-345.58 1612.37,-921.73 3254.2,-1564.22 1991.07,-779.16 4240.88,-1659.64 4454.41,-2151.02 -36.64,-51.48 -150.9,-73.28 -345.59,-68.19 -299.6,7.83 -746.99,93.13 -1347.35,246 -1591.03,405.11 -2220.5,443.84 -2270.93,245.75 -63.11,-247.87 805.19,-688.1 1839.07,-1212.21 1325.13,-671.78 2946.12,-1493.58 3014.5,-1845.68 -6.2,-5.68 -36.21,-15.74 -84.62,-28.9 -97.07,-26.38 -233.55,-35.88 -396.36,-28.1 -345.82,16.53 -796.45,110.18 -1238.86,284.53zm-5351.27 -17961.07c-31.37,-64.69 -52.68,-137.88 -59.79,-220.49 -7.09,-86.15 57.02,-161.77 143.18,-168.86 86.16,-7.09 161.77,57.02 168.86,143.18 7.42,86.46 46.15,152.96 97.14,203.31 81.93,80.89 194.83,125.76 275.02,146.33 386.57,72.67 799.07,177.52 1189.31,306.76 385.96,127.82 752.71,280.51 1054.85,450.92 61.07,-170.42 120.8,-324.69 184.04,-472.18 90.61,-211.32 188.08,-407.74 306.56,-616.37 -140.18,-56.78 -267.43,-173.43 -335.45,-475.44 -139.02,45.03 -286.98,-3.24 -431.55,-108.62 -120.11,-87.54 -241.39,-216.78 -351.38,-359.58 -179.3,-232.77 -334.84,-512.16 -407.64,-707.5 -30.27,-54.81 -57.32,-100.83 -85.5,-148.77 -61.59,-104.78 -127.78,-217.41 -186.38,-337.8 -400.8,86.07 -806.09,141.8 -1207.38,231.28 -167.69,43.67 -321.9,108.43 -458.22,184.14 -189.13,105.02 -342.91,230.72 -449.89,349.78 -57.78,64.2 -156.69,69.4 -220.89,11.62 -64.2,-57.78 -69.4,-156.69 -11.62,-220.88 51.19,-56.97 111.22,-115.11 179.17,-172.3 -348.72,28.67 -727.21,26.45 -1092.34,-43.66 -497.71,-95.54 -1037.22,-29.71 -1520.3,111.03 59.09,128.54 95.12,283.39 108.24,447.91 12.9,161.83 4.64,334.95 -24.8,500.65 -29.94,168.55 -82.14,331.34 -156.65,469.69 -29.93,55.57 -63.4,107.26 -100.46,154.05 59.79,4.25 115.96,7.78 167.62,11.02l44.6 2.83c920.76,-104.07 1933.16,90.16 2751,247.11 151.13,29.01 295.48,56.7 430.65,80.84zm1430.39 -2656.97c-300.19,-1771.18 1016.29,-3466.88 2867.15,-3311.13 626.65,52.75 1267.18,336.28 1824.3,910.92 233.81,-198.38 469.12,-302.89 710.04,-308.48 280.73,-6.51 555.36,121.51 829.44,391.87 4.8,4.22 9.41,8.78 13.76,13.67 443.37,443.23 2310.28,2665.35 2789.68,3506.66 243.38,427.09 446.02,916.19 554.95,1462.46 972.95,773.92 1967.39,1596.86 2826.1,2494.74 794.16,830.37 1492.53,1722.53 1187.41,2950.95 -166.62,670.72 -928.39,2012.99 -1544.03,2558.31 -189.23,167.61 -377.95,334.81 -428.94,615.1l14180.06 -5119.34c-22.42,-159.57 -9.28,-315.76 34.99,-454.57 71.63,-224.62 223.64,-405.23 438.98,-488.53l28.48 -11.01 2.11 0c206.93,-69.22 428.52,-35.62 622.88,76.65 139.01,80.31 264.32,201.83 358.88,354.65 108.39,-39.31 197.67,-74.03 268.46,-101.57l84.72 -32.85c175.67,-66.65 276.27,-73.35 326.92,60.18 45.51,119.82 -10.43,176.93 -149.06,229.53 -31.14,11.82 -47.94,18.02 -66.92,25 -75.69,27.85 -186.33,68.57 -330.86,126.76 56.52,207.43 51.33,416.09 -5.94,595.65 -71.63,224.62 -223.64,405.23 -438.98,488.53l-28.48 11.01 -2.1 0c-206.93,69.23 -428.53,35.62 -622.89,-76.65 -163.01,-94.18 -307.19,-245.03 -405.02,-436.58l-14290.38 5235.82c42.95,713.35 36.5,1106.16 -1126.07,1410.43 -312.21,81.71 -621.93,111.63 -888.62,28.58 -282.98,-88.11 -509.11,-294.56 -628.94,-683.3 -63.57,-206.21 -23.38,-373.29 63.1,-732.71 28.33,-117.73 62.42,-259.33 104.99,-458.16l2.44 -9.8c38.02,-135.36 80.2,-270.9 135.97,-396.64 56.46,-127.31 126.84,-244.89 220.35,-343.38 89.68,-151.08 100.48,-267.85 112.32,-396.32 95.15,-1031.67 728.77,-1323 902.58,-1997.94 37.66,-146.19 17.3,-285.63 -113.53,-415.13 -83.26,-82.41 -233.74,-152.74 -381.49,-213.7 -5.31,-1.84 -10.57,-4.01 -15.76,-6.47 -34.74,-14.2 -69.19,-27.89 -102.43,-41.1l-1.37 -0.55c-252.82,643.51 -753.47,1653.45 -1302.57,2673.9 -524.04,973.92 -1093.71,1960.26 -1534.91,2648.27 -49.4,89.82 -108.24,179.18 -175.14,267.4l-15.33 22.81c115.06,140.01 150.92,296.26 114.2,473.97 -39.39,190.72 -169.57,398.34 -380.32,633.23l-6.12 6.72 -15314.9 15211.72 -5.66 4.49c-867.17,687.35 -1941.03,674.28 -2675.68,359.09 -229.5,-98.47 -427.69,-226.95 -578.39,-373.62 -159.03,-154.78 -266.89,-331.14 -306.41,-516.73 -65.86,-309.15 52.37,-629 428.89,-901.41l1580.98 -1530.77 -6764.12 5015.51 0.14 0.18c-633.29,479.23 -1281.92,455.19 -1763.24,184.85 -182.63,-102.57 -340.91,-241.34 -464.82,-402.02 -124.84,-161.93 -214.88,-346.13 -260.01,-538.29 -105.68,-449.92 29.04,-939.6 528.01,-1291.13l1.22 -0.61 7399.9 -5129.08c105.52,-215.8 231.97,-444.89 383.7,-681.53 68.94,-124.24 157.8,-253.04 269.31,-390.06 56.95,-76.77 116.65,-153.98 179.24,-231.45 357.47,-442.47 809.49,-893.67 1381.58,-1319.99 -241.52,-573.94 34.7,-810.14 360.83,-1089 119.98,-102.58 248.4,-212.37 345.18,-351.56 298.91,-429.88 639.54,-1047.32 983.65,-1671.05 303.05,-549.31 608.81,-1103.52 894.75,-1546.1 1105.56,-1711.09 1508.91,-2051.38 2236.27,-2665.03l69.47 -58.63c21.19,-17.9 47.32,-37.83 78.86,-61.89 146.08,-111.4 421.67,-321.6 678.67,-713.57l25.14 -39.63c1.75,-2.75 3.59,-5.43 5.48,-8.04 114.28,-180.5 227.63,-356.08 339.98,-524.62 116.77,-175.15 245.78,-363 391.98,-568.82 682.44,-960.76 1489.16,-1669.09 2079.38,-2187.33 210.42,-184.76 391.84,-344.05 525.44,-476.78 5.91,-7.1 12.5,-13.73 19.74,-19.78 109.49,-110.62 183.73,-201.99 211.08,-273.38 25.32,-66.13 43.81,-118.81 62.81,-172.95 72.45,-206.44 151.37,-431.34 305.9,-677.58 62.93,-100.28 138.12,-193.65 235.64,-283.71 822,-759.21 780.72,-1158.2 692.23,-2278.61 -48.07,-608.52 -100.79,-1276.75 104.22,-2070.22 0.99,-4.6 2.2,-9.21 3.61,-13.8 12.13,-46.32 25.09,-93.06 39.02,-140.26 -288.8,-168.35 -653.7,-321.29 -1042.7,-450.11 -488.21,-161.68 -1010.03,-283.65 -1465.66,-349.67 -219.52,-31.81 -468.82,-79.66 -739.56,-131.61 -800.62,-153.65 -1792.63,-344.01 -2670.25,-241.94l-13.07 1.52 -73.12 -4.63c-176.2,-11.08 -400.47,-25.19 -646.24,-58.28 -2.4,-0.27 -4.79,-0.61 -7.16,-0.98 -580.37,-78.89 -1278.64,-264.13 -1746.09,-764.77l-5217.76 2905.13c42.3,114.61 62.62,235.13 61.06,354.97 -3.3,250.79 -102.31,498.5 -296.21,683.6 -193.68,184.89 -445.39,272.2 -695.71,263.88 -249.56,-8.3 -497.66,-111.61 -685.11,-307.97 -187.15,-196.03 -278.68,-448.35 -275.41,-697.76 3.3,-250.8 102.31,-498.5 296.2,-683.59 193.68,-184.89 445.38,-272.2 695.71,-263.88 249.56,8.29 497.67,111.61 685.12,307.96 11.43,11.99 22.51,24.18 33.23,36.57l5188.1 -2977.72c-79.55,-562.41 210.09,-1276.62 775.51,-1434.71 261.06,-73 583.45,-53.64 968.68,114.14l3.67 1.83c13.94,6.53 669.2,358.04 683.85,359.38 3.82,0.34 29.5,-7.3 77.21,-21.48 544.9,-162.03 1143.32,-237.87 1706.04,-129.86 890.08,170.9 2164.75,-139.95 3071.54,-324.69zm-5301.87 2266.85c126.5,-16.72 228.18,-115.4 302.73,-253.8 57.92,-107.54 99.18,-237.91 123.61,-375.46 24.94,-140.36 31.99,-286.38 21.15,-422.33 -18.35,-230.1 -82.98,-423.9 -192.63,-487.99l-0.12 -0.07 -1.78 -1 -3.48 -1.96 -0.42 -0.24c-2.02,-1.09 -4.02,-2.23 -5.97,-3.4 -14.01,-7.99 -29.11,-16.78 -45.67,-26.42 -97.68,-56.86 -259.54,-151.07 -562.64,-293.11 -312.39,-135.94 -564.04,-154.35 -760.69,-99.36 -345.25,96.53 -571.94,465.39 -593.83,818.58 -18.73,302.31 77.9,411.71 302.61,603.1 395.39,336.68 943.07,477.41 1417.13,543.46zm7769.53 16.83c8.35,-0.76 16.85,-0.87 25.47,-0.27 40.35,2.97 77.45,1.33 112.29,-3.88 34.66,-5.19 67.79,-14.12 100.19,-25.67 81.43,-28.72 170.74,14.02 199.46,95.45 28.71,81.43 -14.03,170.74 -95.46,199.46 -22.68,8.08 -45.76,15.38 -69.46,21.71l11.72 16.11c132.07,181.7 256.44,352.77 724.1,190.29 96.27,-33.45 196.62,-141.38 290.48,-292.51 114.59,-184.47 212.21,-426.12 279.79,-679.11 22.3,-83.46 108.05,-133.04 191.51,-110.75 83.47,22.3 133.05,108.05 110.75,191.51 -75.07,281.01 -185.42,552.52 -316.5,763.55 -129.71,208.86 -284.25,363.51 -453.23,422.22 -44.35,15.41 -86.6,28.69 -126.95,40.05 79.14,217.75 109.74,406.6 95.9,594.16 -16.83,228.38 -98.65,448.3 -238.03,710.94 -372.43,701.78 -571.31,1192.86 -673.79,1704.19 -103.09,514.39 -110.47,1054.09 -99.42,1849.96 5.04,363.96 -102.73,732.17 -149.41,891.66 -9.71,33.18 -16.85,33.9 -16.36,44.03 2.7,57.44 -41.68,106.21 -99.12,108.91 -57.44,2.71 -106.21,-41.67 -108.91,-99.11 -1.16,-23.92 8.8,-58.02 24.53,-111.75 44.07,-150.59 145.85,-498.33 141.24,-831.3 -11.27,-811.72 -3.59,-1362.94 102.68,-1893.18 106.87,-533.3 311.72,-1040.61 694.19,-1761.31 126.23,-237.84 200.01,-432.97 214.37,-627.73 12.18,-165.05 -17.7,-334.68 -93.71,-535.5 -425.19,57.5 -582.4,-158.65 -747.42,-385.67 -72.18,-99.3 -146.48,-201.52 -252.28,-255.56 -1.54,-0.78 -3.12,-1.54 -4.76,-2.3 -131.14,224.8 -235.47,431.55 -331.72,656.03 -108.03,251.95 -206.5,527.87 -321.44,877.44 -191.66,744.94 -141.12,1385.47 -95.05,1968.73 121.42,1537.15 -3.42,1714.89 -792.55,2533.14 -9.62,8.89 -18.96,17.8 -28.03,26.75 242.99,-8.62 476.03,117.59 772.68,278.33 479.85,260 1143.01,619.31 2331.86,584.66 370.28,-10.79 939.87,20.14 1529.08,134.02 439.44,84.92 891.33,216.09 1283.09,410.62 51.59,25.45 72.76,87.92 47.32,139.5 -25.45,51.59 -87.92,72.76 -139.5,47.32 -373.19,-185.32 -806.87,-310.89 -1230.07,-392.67 -574.15,-110.96 -1126.34,-141.18 -1484.22,-130.76 -1245.07,36.29 -1936.19,-338.17 -2436.28,-609.14 -349.06,-189.13 -595.15,-322.44 -872.03,-196.66 -108.83,190.4 -172.9,372.96 -232.24,542.05 -15.73,44.84 -31.18,88.86 -45.25,127.64 56.83,-13.08 114.01,-22.52 171.37,-27.74 242.6,-22.08 483.54,30.36 708.25,201.46 7.84,5.98 40.98,32.11 77.76,61.13 158.57,125.1 411.86,324.88 535.77,324.86 841.48,-213.68 2621.18,-280.33 3949.75,110.49 410.98,120.89 781.85,286.1 1073.89,504.95 303.36,227.35 521.33,511.6 612.49,862.85 18.73,72.15 32,146.84 39.48,224.14 314.6,-533.17 653.35,-1135.5 975.41,-1734.03 554.04,-1029.64 1056.85,-2044.55 1299.31,-2671.22 -173.53,-82.82 -356.83,-168.28 -542.97,-255.04 -1024.06,-477.42 -2133.56,-994.66 -2645.24,-1580.21 -56.76,-64.88 -50.19,-163.51 14.68,-220.27 64.88,-56.76 163.51,-50.2 220.27,14.68 466.86,534.26 1546.22,1037.46 2542.45,1501.89 320.4,149.36 632.24,294.75 927.92,444.01 175.69,72.46 360.72,159.83 482.81,280.67 90.24,89.33 149.93,181.36 184.91,275.76 98.4,-82.74 205.45,-126.85 340.3,-148.2 85.16,-13.52 165.16,44.55 178.67,129.71 13.51,85.15 -44.56,165.15 -129.71,178.66 -85.76,13.58 -150.27,41.86 -207.84,96.64 -68.98,65.62 -135.06,169.84 -215.18,326.45 -3.53,6.91 -7.52,13.44 -11.88,19.58 -259.72,621.42 -769.72,1046.08 -837.77,1784.1 -4.74,51.35 -9.34,101.25 -17.05,151.8 211.27,-60.83 457.21,-73.76 698.44,-42.84 349.29,44.78 695.33,182.08 917.53,399.38 3.19,3.11 6.33,6.24 9.46,9.38 90,-108.65 195.7,-202.31 301.55,-296.07 569.43,-504.38 1294.67,-1784.6 1447.36,-2399.23 275.62,-1109.72 -396.96,-1915.05 -1110.32,-2660.93 -847.58,-886.26 -1909.01,-1747.52 -2836.37,-2497.88 -639.89,-503.87 -1363.45,-959.92 -2133.67,-1064.19 -85.49,-11.48 -145.48,-90.1 -133.99,-175.59 11.49,-85.49 90.11,-145.48 175.6,-134 700.41,94.82 1349.32,443.91 1934.22,862.75 -107.3,-367.73 -258.61,-705.01 -432.12,-1009.48 -192.67,-338.11 -413.12,-636.07 -631.35,-890.61 -347,-34.99 -757.59,101.77 -1168.04,317.97 -637.25,335.65 -1265.83,859.65 -1674.22,1247.02 -64.43,91.26 -126.96,172.07 -186.27,240.4 -56.43,65.21 -155.06,72.34 -220.27,15.91 -65.21,-56.43 -72.34,-155.05 -15.91,-220.27 54.54,-62.84 112.04,-137.07 171.28,-220.83 3.63,-6.01 7.7,-11.83 12.22,-17.4 368.43,-526.9 801.44,-1416.79 1020.57,-2254.37 180.49,-689.93 215.19,-1333.16 -60.54,-1671.34 -210.32,-207.02 -409.72,-305.31 -602.58,-300.83 -162.6,3.76 -330.2,80.61 -504.92,226.87 133.15,168.18 218.94,335.81 265.37,503.24 68.49,247 50.83,488.04 -27.63,725.74 -222.86,675.14 -704.97,1097.3 -1189.93,1521.92 -143.53,125.67 -287.35,251.61 -424.6,385.27 -13.36,12.99 -28.45,23.11 -44.51,30.36 -244.8,446 -444.02,683.62 -640.55,794.85 -249.91,141.47 -468.01,90.38 -737.03,-16.05 -88.56,-35.03 -153.68,-50.05 -202.74,-40.64 -9.11,1.75 -18.2,4.56 -27.37,8.46 49.72,379.47 187.81,406.95 313.77,431.93 66.75,13.25 131.46,26.1 200.77,61.5 28.45,14.53 54.81,30.23 79.43,46.88zm7564.99 8916.54c-45.73,34.92 -111.12,26.15 -146.04,-19.57 -34.92,-45.73 -26.14,-111.12 19.58,-146.04 208.89,-160.4 423.76,-192.36 624.31,-162.72 191.55,28.29 365.93,113.41 507.29,193.47 50.01,28.38 67.54,91.95 39.16,141.95 -28.38,50.01 -91.94,67.54 -141.95,39.16 -124,-70.21 -275.45,-144.66 -434.68,-168.18 -150.2,-22.19 -311.16,1.75 -467.67,121.93zm-299.98 -381.19c-6.87,7.07 -14.25,13.34 -22.02,18.82 -49.56,61.85 -90.48,134.88 -125.72,214.33 -48.29,108.87 -85.8,229.07 -119.85,349.93 -36.81,171.56 -74.8,329.39 -106.42,460.84 -72.82,302.61 -106.66,443.28 -67.99,568.72 84.72,274.87 236.33,418.27 423.34,476.5 203.27,63.31 455.9,36.16 717.31,-32.25 944.07,-247.09 924.69,-563.06 888.86,-1147.27l-0.81 0.21 -12.95 -208.32c-12.8,-205.86 16.92,-370.88 73.82,-509.85 -17.39,-22.39 -36.48,-43.66 -57.07,-63.8 -172.72,-168.92 -452.08,-276.97 -738.87,-313.74 -284.93,-36.52 -570.65,-2.16 -758.77,113.41l-0.62 0c-34.95,21.47 -65.98,45.63 -92.24,72.47zm-12496.85 6280.67c55.19,-16.45 113.27,14.96 129.72,70.15 16.44,55.19 -14.97,113.26 -70.15,129.71 -307.3,92.69 -395.11,243.25 -499.25,421.87 -103.69,177.84 -221.24,379.43 -529.39,586.91 -47.75,31.99 -112.41,19.2 -144.39,-28.55 -31.98,-47.75 -19.2,-112.41 28.55,-144.39 267.81,-180.32 372.56,-359.95 464.94,-518.4 126.81,-217.49 233.71,-400.8 619.97,-517.3zm-436.29 -832.81c56.76,-9.91 110.83,28.08 120.74,84.84 9.91,56.77 -28.08,110.84 -84.84,120.75 -72.9,12.87 -154.69,9.84 -238.88,-6.98 -154.3,-30.83 -321.75,-109.57 -457.8,-221.84 -140.49,-115.96 -249.11,-268.6 -280.06,-443.88 -12.29,-69.58 -12.35,-142.23 2.58,-216.96 11.26,-56.54 66.24,-93.25 122.78,-81.99 56.55,11.25 93.25,66.23 81.99,122.78 -9.68,48.49 -9.68,95.45 -1.76,140.27 21.61,122.38 101.95,232.67 206.63,319.07 109.11,90.05 243.14,153.15 366.43,177.78 59.59,11.9 115.24,14.45 162.19,6.16zm3220.88 771.77c-38.75,-42.57 -35.64,-108.51 6.93,-147.25 42.57,-38.74 108.51,-35.64 147.26,6.93 254.97,279.49 649.98,451.54 1020.95,500.63 56.99,7.43 97.17,59.67 89.74,116.66 -7.42,56.99 -59.67,97.17 -116.66,89.74 -420.39,-55.62 -859.59,-250.33 -1148.22,-566.71zm-8348.67 3945.07c-29.96,-49.11 -14.43,-113.21 34.68,-143.17 49.11,-29.96 113.22,-14.43 143.18,34.68 84.91,139 249.71,302.19 477.53,416.74 178.19,89.61 394.17,148.46 639.46,141.32 57.44,-1.57 105.3,43.72 106.86,101.16 1.57,57.44 -43.72,105.3 -101.16,106.87 -283.4,8.26 -533,-59.77 -738.97,-163.35 -265.33,-133.41 -459.72,-327.51 -561.58,-494.25zm-1349.25 1724.49c-10.35,-56.55 27.08,-110.79 83.63,-121.15 56.54,-10.36 110.79,27.07 121.15,83.62 13.94,75.07 44.58,154.59 88.96,233.66 45.79,81.61 105.54,161.39 176.1,234.23 40.1,41.22 39.18,107.15 -2.03,147.25 -41.22,40.1 -107.15,39.18 -147.25,-2.04 -83.81,-86.53 -154.63,-181.01 -208.74,-277.46 -54.98,-97.95 -93.48,-199.34 -111.82,-298.11zm-407.06 402.68c-12.39,-56.09 23.04,-111.61 79.14,-124 56.09,-12.38 111.61,23.05 124,79.14 22.24,100.6 76.99,208.5 151.35,312.92 83.35,117.05 190.51,228.09 304.4,319.35 44.82,36.03 51.94,101.61 15.9,146.43 -36.03,44.82 -101.61,51.94 -146.43,15.9 -128,-102.55 -248.92,-228.05 -343.56,-360.94 -89.45,-125.62 -156.16,-259.25 -184.8,-388.8zm9288.23 -7321.21l0.81 -0.39c180.02,-95.05 368.87,-184.84 570.15,-280.34 -8.83,4.17 -5.59,2.58 67.33,-32.18 60.74,-270.86 36.99,-418.78 11.59,-576.91 -37.66,-234.31 -78.44,-488.11 69.11,-1061.68 65.33,-253.98 166.27,-462.52 271.76,-680.51 196.1,-405.18 409.19,-845.48 393.07,-1648.37 -7.41,-369.65 77.3,-682.69 264.37,-929.8 109,-144.02 251.22,-263.73 428.52,-357.2 -118.65,-75.27 -230.85,-163.76 -319.16,-233.43 -19.78,-15.61 -37.88,-29.88 -74.09,-57.46 -155.22,-118.19 -322.11,-154.38 -490.43,-139.06 -175.01,15.93 -355.67,86.1 -529.74,179.53 -142.84,142.28 -324.82,302.07 -532.92,484.8 -578.21,507.69 -1368.48,1201.58 -2030.43,2133.49 -132.48,186.5 -260.62,373.59 -385.88,561.46 -125.71,188.58 -235.9,358.74 -336.64,517.82 -1.61,2.95 -3.33,5.86 -5.14,8.73 -93.22,146.62 -193.17,306.02 -272.06,463.82 -77.96,155.92 -140.42,317.48 -165.25,477.71 -13.17,85.16 -92.9,143.5 -178.05,130.33 -85.16,-13.16 -143.5,-92.89 -130.33,-178.05 5.17,-33.34 11.57,-66.54 19.1,-99.59 -18.59,14.37 -35.93,27.6 -51.87,39.76 -27.9,21.29 -51.05,38.94 -66.62,52.1l-69.47 58.63c-704.56,594.41 -1095.26,924.04 -2175.08,2595.27 -279.93,433.27 -583.18,982.94 -883.74,1527.74 -348.84,632.32 -694.15,1258.23 -1000.78,1699.21 -118.55,170.48 -263.54,294.46 -399.02,410.29 -224.56,192.01 -415.69,355.52 -279.13,718.33 310.45,726.3 1328.51,1345.89 2101.19,1356.2 416.05,5.55 757.35,-132.63 994.2,-300.37l627.48 -528.27c154.09,-239.28 256.74,-486.82 309.11,-713.39 32.35,-139.98 45.57,-270.34 39.85,-383.69 -185.56,116.06 -362.7,182.2 -526.77,182.2 -86.5,0 -156.63,-70.13 -156.63,-156.63 0,-86.5 70.13,-156.63 156.63,-156.63 149.93,0 321.95,-80.96 508.37,-220.83 16.75,-23.26 40.03,-42.14 68.42,-53.54 651.85,-528.42 1462.48,-1720.94 2120.2,-2688.61 395.22,-581.46 737.11,-1084.46 972.56,-1333.49l16.12 -16.91c-79.46,15.43 -166.68,29.32 -264.72,41.98 -85.49,10.81 -163.57,-49.73 -174.37,-135.22 -10.81,-85.49 49.72,-163.56 135.21,-174.37 491.3,-63.44 686.12,-163.16 1046.39,-347.55 102.63,-52.53 216.5,-110.82 306.78,-154.93zm137.18 281.4l-0.12 0.06c-140.92,68.86 -225.59,112.2 -301.89,151.26l302.01 -151.32zm788.4 -451.06c-0.82,3.69 -1.77,7.36 -2.86,10.97 -72.29,274.12 -213.08,645.53 -471.03,1190.52 -45.26,95.62 -68.83,187.53 -74.05,275.09 0.36,6.74 0.27,13.6 -0.27,20.53 -0.24,2.99 -0.55,5.96 -0.82,8.96 -1.01,79.04 12.97,154.38 39.45,225.53 68.45,183.83 219.78,347.03 413.63,479.45 202.76,138.5 449.45,241.43 698.07,299.2 376.97,87.59 750.31,72.38 964.73,-81.04 178.62,-127.81 313.76,-367.34 459.52,-625.72 385.93,-684.08 666.38,-883.71 951.03,-1698.45 153.98,-440.71 270.33,-898.78 269.17,-1135.36 -0.4,-6.02 -0.43,-12.11 -0.1,-18.24 0.52,-102.36 25.81,-458.66 91.38,-806.91 41.42,-220.04 99.39,-440.94 178.33,-603.82 37.51,-77.72 130.92,-110.32 208.64,-72.81 77.73,37.5 110.33,130.92 72.82,208.64 -65.59,135.3 -115.67,329.09 -152.65,525.51 -45.39,241.1 -70.42,480.4 -80.76,627 418.14,42.84 1035.77,-147.87 1624.78,-462.83 525.94,-281.23 1021.81,-659.1 1327.71,-1057.09 103.29,-153.87 217.05,-331.05 338.16,-525.98 1.04,-8.24 2.73,-16.51 5.16,-24.74 84.54,-287.39 90.95,-536.98 34.91,-752.84 -71.94,-277.22 -249.2,-505.49 -497.46,-691.54 -259.6,-194.53 -596.85,-343.62 -974.77,-454.79 -1282.9,-377.38 -3000.25,-311.38 -3798.69,-104.14 -299.22,77.66 -514.03,210.81 -651.79,392.82 -143.24,189.21 -207.95,436.97 -201.97,735.24 17.64,878.54 -212.16,1353.37 -423.64,1790.32 -99.29,205.17 -194.28,401.44 -250.96,621.76 -131.32,510.47 -95.79,731.55 -62.99,935.64 33.12,206.13 63.79,397.39 -32.68,769.12zm-8066.97 9064.46c-1231.6,1192.32 -2463.24,2384.6 -3694.49,3577.28l-9.69 6.91c-267.29,190.44 -354.9,398.02 -314.16,589.28 26.25,123.28 103.19,245.59 218.33,357.64 123.47,120.16 288.91,226.75 482.92,309.98 646.28,277.28 1590.15,289.43 2353.51,-312.17l8453.53 -8396.58c-160.09,39.38 -328.76,46.21 -506.86,11.39 -283.3,314.84 -567.8,544.63 -829.38,667.46 -304.74,143.1 -583.92,147.07 -807.69,-16.49 -502.62,-367.34 -245.87,-836.2 9.32,-1185.35 33.77,-46.2 66.94,-89.39 97.71,-129.48 22.02,-28.69 42.76,-55.7 61.36,-80.88 -2.81,-11.68 -5.39,-23.24 -7.95,-34.8 -1835.5,1545.28 -3670.96,3090.53 -5506.46,4635.81zm7822.92 -5770.17c-56.1,-12.38 -91.53,-67.9 -79.14,-124 12.38,-56.09 67.9,-91.52 124,-79.14 110.12,24.28 249.62,107.1 367.02,210.88 111.2,98.29 206.79,218.68 244.56,330.39 18.46,54.51 -10.76,113.7 -65.27,132.16 -54.5,18.46 -113.69,-10.76 -132.15,-65.26 -25.77,-76.21 -98.5,-164.99 -185.02,-241.47 -93.17,-82.37 -197.73,-146.74 -274,-163.56zm-336.81 328.51c-56.32,-11.49 -92.67,-66.47 -81.18,-122.78 11.48,-56.32 66.46,-92.67 122.78,-81.18 133.08,27.14 267.83,105.15 382.92,199.97 136.9,112.77 249.6,252.79 298.73,359.12 24.11,52.27 1.28,114.19 -50.98,138.29 -52.27,24.1 -114.19,1.27 -138.29,-50.99 -37.67,-81.53 -128.64,-192.65 -241.61,-285.72 -91.69,-75.54 -195.42,-136.94 -292.37,-156.71zm-1491.79 1150.98c-60.15,-61.84 -58.78,-160.74 3.06,-220.89 61.84,-60.14 160.74,-58.78 220.88,3.06 29.88,30.63 67.8,59.9 111.52,85.81 43.85,25.98 92.03,47.76 142.29,63.36 82.45,25.34 128.75,112.73 103.4,195.19 -25.34,82.45 -112.73,128.74 -195.18,103.39 -75.47,-23.42 -146.36,-55.27 -209.59,-92.72 -66.88,-39.64 -126.87,-86.45 -176.38,-137.2zm-164.77 -314.96c12.2,42.84 6.12,90.6 -20.73,130.42 -27.7,41 -65.45,90.16 -107.35,144.76 -29.95,39.02 -62.23,81.04 -94.05,124.6 -172.21,235.6 -352.51,546.85 -76.62,748.49 122.32,89.4 292.79,78.85 490.75,-14.11 233.46,-109.62 495.97,-327.64 763.35,-631.86 25.41,-48.63 74.66,-80.05 128.62,-83.42 26.59,-2.72 53.84,1.37 78.91,12.45 806.22,198.86 1453.68,-804.7 1955.44,-1582.65 101.52,-157.39 197.59,-306.33 290,-437.67 -201.87,15.37 -421.44,-4.43 -638.53,-54.88 -285.31,-66.29 -569.57,-185.2 -804.54,-345.71 -191.29,-130.67 -351.44,-289.94 -456.37,-472.77 -158.13,240.93 -400.21,452.03 -651.82,671.45 -512.32,446.74 -1069.58,932.71 -861.81,1746.93 3.74,14.73 5.25,29.5 4.75,43.97zm3968.99 -1763.69c-157.9,115.13 -357.67,424.8 -587.57,781.24l-19.77 30.64 5144.37 -5109.71c171.06,-191.52 274.64,-350.56 301.75,-481.82 12.32,-59.67 5.41,-115.29 -22.06,-167.89 -327.24,340.44 -760.58,652.36 -1212.44,893.97 -629.34,336.51 -1303.39,539.73 -1788.85,498.86 -34.31,283.56 -141.16,685.23 -274.69,1067.42 -294.46,842.79 -581.53,1052.43 -974.28,1748.61 -163.82,290.39 -315.7,559.6 -550.07,727.3 -5.4,3.86 -10.87,7.64 -16.39,11.38zm4666.06 -5620.85c-10.13,56.54 -64.19,94.15 -120.74,84.02 -56.54,-10.12 -94.16,-64.19 -84.03,-120.74 70.95,-393.66 -70.73,-580.33 -247.97,-813.81 -149.74,-197.27 -322,-424.2 -433.37,-810.8 -15.76,-55.19 16.19,-112.72 71.38,-128.48 55.19,-15.76 112.72,16.2 128.48,71.38 100.5,348.86 260.25,559.31 399.12,742.26 207.96,273.95 374.21,492.98 287.13,976.17zm-2216.36 290.17c-21.62,53.17 -82.26,78.74 -135.42,57.11 -53.16,-21.62 -78.73,-82.26 -57.11,-135.42 75.14,-183.9 135.58,-379.14 133.3,-558.82 -2.12,-166.19 -60.55,-322.24 -218.32,-446.48 -112.92,-88.92 -223.39,-242.9 -306.6,-410.34 -83.2,-167.44 -140.94,-352.24 -147.98,-501.93 -2.7,-57.44 41.67,-106.21 99.12,-108.91 57.44,-2.7 106.21,41.67 108.91,99.12 5.67,120.58 55.17,275.44 126.76,419.53 70.3,141.48 160.22,268.88 248.69,338.54 214.97,169.28 294.56,381.76 297.45,608.03 2.71,212.78 -64.81,434.03 -148.8,639.57zm-396.13 -411.02c14.64,55.63 -18.6,112.62 -74.23,127.26 -55.64,14.64 -112.62,-18.6 -127.26,-74.24 -64.5,-242.9 -253.61,-414.82 -436.46,-581.03 -242.76,-220.69 -475.88,-432.62 -471.64,-800.08 0.45,-57.45 47.39,-103.65 104.83,-103.2 57.44,0.44 103.65,47.38 103.2,104.82 -3.16,274.18 196.26,455.48 403.94,644.27 205.07,186.41 417.18,379.26 497.62,682.2zm-538.59 189.88c54.74,17.56 84.86,76.2 67.3,130.93 -17.56,54.74 -76.2,84.87 -130.93,67.3 -196.8,-63.49 -388.2,-157.08 -550.67,-283.87 -146.71,-114.46 -269.73,-255.76 -352.21,-426.13 -25,-51.81 -3.27,-114.09 48.54,-139.09 51.8,-25 114.09,-3.27 139.09,48.53 67.78,140.01 170.09,257.07 292.66,352.71 141.88,110.72 311.07,193.11 486.22,249.62zm1371.95 -11089.29c-31.09,48.43 -95.56,62.48 -143.99,31.4 -48.43,-31.09 -62.48,-95.56 -31.4,-143.99 249.28,-386.35 552.96,-893.14 753.01,-1431.53 196.69,-529.34 294.18,-1090.57 139.98,-1597.1 -16.67,-54.96 14.38,-113.05 69.34,-129.71 54.95,-16.67 113.04,14.38 129.71,69.33 169.62,557.2 66.64,1163.08 -144.05,1730.09 -207.32,557.96 -517.99,1076.88 -772.6,1471.51zm1032.25 -478.1c318.94,-250.15 676.28,-497.07 1037.7,-687.44 349.41,-184.05 704.5,-315.99 1037.44,-350.41 -474.63,-538.25 -887.97,-1125.13 -1339.01,-1682.19 23.78,353.75 -33.99,760.72 -143.14,1177.92 -137.1,524.03 -355.83,1069.38 -592.99,1542.12zm-2295.31 -619.11c85.68,-77.82 173.01,-154.29 260.22,-230.67 452.14,-395.88 901.63,-789.48 1098.17,-1384.87 59.98,-181.73 74.3,-363.03 23.95,-544.64 -20.32,-73.27 -51.21,-147.46 -93.88,-222.7 -50.34,225.56 -161.65,502.25 -361.35,812.62 -234.29,364.15 -592.37,783.92 -1120.03,1232.92 33.86,30.44 60.82,65.32 80.04,104.92l112.88 232.42zm-511.94 -478.03c566.16,-463.78 939.61,-893.76 1175.95,-1261.1 307.87,-478.47 379.04,-828.52 341.46,-995.8 -505.84,-532.18 -1085.12,-793.58 -1648.69,-841 -1590.37,-133.81 -2736.4,1289.79 -2553.43,2805.11 44.26,224.94 167.71,442.93 279.77,633.98 21.82,-12.96 45.24,-25.5 70.16,-37.61 265.12,-128.76 761.61,-246.84 1250.55,-305.43 401.27,-48.09 804.66,-56.22 1084.23,1.85zm267.91 686.41c-4.75,-6.8 -9.05,-14.06 -12.76,-21.78l-137.55 -283.19c-5.86,-12.07 -28.13,-25.92 -63.26,-40.89 -210,-89.52 -651.05,-85.6 -1101.86,-31.58 -458.53,54.95 -916.1,161.78 -1151.43,276.07 -26.08,12.68 -47.5,23.64 -63.52,32.6 63.17,154.58 194.68,380.42 347.32,578.58 94.26,122.38 194.3,230.3 287.74,298.4 66.19,48.25 121.19,74.32 153.18,63.1 6.68,-2.33 14.52,-8.61 23.55,-19.38 100.36,-119.59 200.38,-186.38 320.25,-209.38 114.57,-22.01 233.11,-0.19 376.53,56.55 186.52,73.8 332.25,112.35 467.8,35.62 154.34,-87.35 324.63,-304.73 554.01,-734.72zm23155.85 4728.65l-0.87 0.33c-122.17,47.6 -210.05,155.36 -253.37,291.19 -24.52,76.88 -35,162.23 -29.89,251.16l704.9 -254.49 7.96 -3.05c57.73,-17.36 112.7,-34.53 164.95,-51.34 -59.95,-79.94 -131.8,-144.11 -209.45,-188.96 -123.93,-71.59 -261.82,-92.19 -384.23,-44.84zm-174.31 909.58c68.46,120.35 161.84,214.71 265.55,274.63 123.93,71.58 261.82,92.18 384.24,44.83l0.87 -0.34c122.17,-47.6 210.05,-155.36 253.36,-291.18 36.11,-113.21 41.79,-244.82 12.05,-379.12 -57.7,25.2 -118.65,52.36 -182.86,81.67l-11.02 4.9 -722.19 264.61z"/></g><text x="0" y="50015" fill="#000000" font-size="5px" font-weight="bold" font-family="'Helvetica Neue', Helvetica, Arial-Unicode, Arial, Sans-serif">Created by Oleksandr Panasovskyi</text><text x="0" y="50020" fill="#000000" font-size="5px" font-weight="bold" font-family="'Helvetica Neue', Helvetica, Arial-Unicode, Arial, Sans-serif">from the Noun Project</text></svg>